<svg width="32" height="32" viewBox="0 0 32 32" fill="none" xmlns="http://www.w3.org/2000/svg">
<g filter="url(#filter0_dd_2003_335)">
<path d="M25.5 7.80269C25.5 7.08323 24.9073 6.5 24.1762 6.5C23.4451 6.5 22.8524 7.08323 22.8524 7.80269L22.8524 14.6973L8.82379 14.6973C8.09269 14.6973 7.5 15.2806 7.5 16C7.5 16.7195 8.09268 17.3027 8.82379 17.3027L22.8524 17.3027L22.8524 24.1973C22.8524 24.9168 23.4451 25.5 24.1762 25.5C24.9073 25.5 25.5 24.9168 25.5 24.1973L25.5 7.80269Z" fill="#F3F4F6"/>
<path d="M25.5 7.80269C25.5 7.08323 24.9073 6.5 24.1762 6.5C23.4451 6.5 22.8524 7.08323 22.8524 7.80269L22.8524 14.6973L8.82379 14.6973C8.09269 14.6973 7.5 15.2806 7.5 16C7.5 16.7195 8.09268 17.3027 8.82379 17.3027L22.8524 17.3027L22.8524 24.1973C22.8524 24.9168 23.4451 25.5 24.1762 25.5C24.9073 25.5 25.5 24.9168 25.5 24.1973L25.5 7.80269Z" stroke="#030712" stroke-width="1.2" stroke-linecap="round" stroke-linejoin="round"/>
</g>
<defs>
<filter id="filter0_dd_2003_335" x="3.90002" y="4.90002" width="25.2" height="26.2" filterUnits="userSpaceOnUse" color-interpolation-filters="sRGB">
<feFlood flood-opacity="0" result="BackgroundImageFix"/>
<feColorMatrix in="SourceAlpha" type="matrix" values="0 0 0 0 0 0 0 0 0 0 0 0 0 0 0 0 0 0 127 0" result="hardAlpha"/>
<feMorphology radius="1" operator="erode" in="SourceAlpha" result="effect1_dropShadow_2003_335"/>
<feOffset dy="2"/>
<feGaussianBlur stdDeviation="2"/>
<feComposite in2="hardAlpha" operator="out"/>
<feColorMatrix type="matrix" values="0 0 0 0 0 0 0 0 0 0 0 0 0 0 0 0 0 0 0.1 0"/>
<feBlend mode="normal" in2="BackgroundImageFix" result="effect1_dropShadow_2003_335"/>
<feColorMatrix in="SourceAlpha" type="matrix" values="0 0 0 0 0 0 0 0 0 0 0 0 0 0 0 0 0 0 127 0" result="hardAlpha"/>
<feMorphology radius="2" operator="erode" in="SourceAlpha" result="effect2_dropShadow_2003_335"/>
<feOffset dy="2"/>
<feGaussianBlur stdDeviation="1"/>
<feColorMatrix type="matrix" values="0 0 0 0 0 0 0 0 0 0 0 0 0 0 0 0 0 0 0.1 0"/>
<feBlend mode="normal" in2="effect1_dropShadow_2003_335" result="effect2_dropShadow_2003_335"/>
<feBlend mode="normal" in="SourceGraphic" in2="effect2_dropShadow_2003_335" result="shape"/>
</filter>
</defs>
</svg>
