<svg width="32" height="32" viewBox="0 0 32 32" fill="none" xmlns="http://www.w3.org/2000/svg">
<g clip-path="url(#paint0_angular_2038_2849_clip_path)" data-figma-skip-parse="true"><g transform="matrix(0.00587785 -0.00809017 0.00809017 0.00587785 16.0001 16)"><foreignObject x="-1020" y="-1020" width="2040" height="2040"><div xmlns="http://www.w3.org/1999/xhtml" style="background:conic-gradient(from 90deg,rgba(37, 99, 235, 1) 0deg,rgba(37, 99, 235, 1) 63.243deg,rgba(243, 244, 246, 0) 360deg);height:100%;width:100%;opacity:1"></div></foreignObject></g></g><path d="M7.90992 10.1221C11.1562 5.65406 17.4099 4.66358 21.8779 7.90982C26.346 11.1561 27.3365 17.4098 24.0903 21.8778C20.844 26.3459 14.5903 27.3364 10.1222 24.0902C5.65415 20.8439 4.66367 14.5902 7.90992 10.1221ZM20.0452 18.9389C21.6683 16.7049 21.1731 13.578 18.939 11.9549C16.705 10.3318 13.5781 10.827 11.955 13.0611C10.3319 15.2951 10.8271 18.422 13.0612 20.0451C15.2952 21.6682 18.422 21.173 20.0452 18.9389Z" data-figma-gradient-fill="{&#34;type&#34;:&#34;GRADIENT_ANGULAR&#34;,&#34;stops&#34;:[{&#34;color&#34;:{&#34;r&#34;:0.14509804546833038,&#34;g&#34;:0.38823530077934265,&#34;b&#34;:0.92156863212585449,&#34;a&#34;:1.0},&#34;position&#34;:0.0},{&#34;color&#34;:{&#34;r&#34;:0.14509804546833038,&#34;g&#34;:0.38823530077934265,&#34;b&#34;:0.92156863212585449,&#34;a&#34;:1.0},&#34;position&#34;:0.17567500472068787},{&#34;color&#34;:{&#34;r&#34;:0.95294117927551270,&#34;g&#34;:0.95686274766921997,&#34;b&#34;:0.96470588445663452,&#34;a&#34;:0.0},&#34;position&#34;:1.0}],&#34;transform&#34;:{&#34;m00&#34;:11.755705833435059,&#34;m01&#34;:16.180339813232422,&#34;m02&#34;:2.0320622920989990,&#34;m10&#34;:-16.180339813232422,&#34;m11&#34;:11.755705833435059,&#34;m12&#34;:18.212310791015625},&#34;opacity&#34;:1.0,&#34;blendMode&#34;:&#34;NORMAL&#34;,&#34;stopsVar&#34;:[{&#34;color&#34;:{&#34;r&#34;:0.14509804546833038,&#34;g&#34;:0.38823530077934265,&#34;b&#34;:0.92156863212585449,&#34;a&#34;:1.0},&#34;position&#34;:0.0},{&#34;color&#34;:{&#34;r&#34;:0.14509804546833038,&#34;g&#34;:0.38823530077934265,&#34;b&#34;:0.92156863212585449,&#34;a&#34;:1.0},&#34;position&#34;:0.17567500472068787},{&#34;color&#34;:{&#34;r&#34;:0.95294117927551270,&#34;g&#34;:0.95686274766921997,&#34;b&#34;:0.96470588445663452,&#34;a&#34;:0.0},&#34;position&#34;:1.0}],&#34;visible&#34;:true}"/>
<circle cx="20.004" cy="9.63837" r="2.5" transform="rotate(-144 20.004 9.63837)" fill="#2563EB"/>
<defs>
<clipPath id="paint0_angular_2038_2849_clip_path"><path d="M7.90992 10.1221C11.1562 5.65406 17.4099 4.66358 21.8779 7.90982C26.346 11.1561 27.3365 17.4098 24.0903 21.8778C20.844 26.3459 14.5903 27.3364 10.1222 24.0902C5.65415 20.8439 4.66367 14.5902 7.90992 10.1221ZM20.0452 18.9389C21.6683 16.7049 21.1731 13.578 18.939 11.9549C16.705 10.3318 13.5781 10.827 11.955 13.0611C10.3319 15.2951 10.8271 18.422 13.0612 20.0451C15.2952 21.6682 18.422 21.173 20.0452 18.9389Z"/></clipPath></defs>
</svg>
