<svg width="32" height="32" viewBox="0 0 32 32" fill="none" xmlns="http://www.w3.org/2000/svg">
<g clip-path="url(#paint0_angular_2038_2979_clip_path)" data-figma-skip-parse="true"><g transform="matrix(-0.00866025 0.005 -0.005 -0.00866025 16.0001 15.9999)"><foreignObject x="-1020" y="-1020" width="2040" height="2040"><div xmlns="http://www.w3.org/1999/xhtml" style="background:conic-gradient(from 90deg,rgba(37, 99, 235, 1) 0deg,rgba(37, 99, 235, 1) 63.243deg,rgba(243, 244, 246, 0) 360deg);height:100%;width:100%;opacity:1"></div></foreignObject></g></g><path d="M21.0001 24.6601C16.2172 27.4215 10.1013 25.7828 7.33983 20.9999C4.57841 16.2169 6.21716 10.101 11.0001 7.3396C15.783 4.57818 21.8989 6.21693 24.6603 10.9999C27.4218 15.7828 25.783 21.8987 21.0001 24.6601ZM13.5001 11.6697C11.1086 13.0504 10.2892 16.1084 11.67 18.4999C13.0507 20.8913 16.1086 21.7107 18.5001 20.33C20.8915 18.9493 21.7109 15.8913 20.3302 13.4999C18.9495 11.1084 15.8915 10.289 13.5001 11.6697Z" data-figma-gradient-fill="{&#34;type&#34;:&#34;GRADIENT_ANGULAR&#34;,&#34;stops&#34;:[{&#34;color&#34;:{&#34;r&#34;:0.14509804546833038,&#34;g&#34;:0.38823530077934265,&#34;b&#34;:0.92156863212585449,&#34;a&#34;:1.0},&#34;position&#34;:0.0},{&#34;color&#34;:{&#34;r&#34;:0.14509804546833038,&#34;g&#34;:0.38823530077934265,&#34;b&#34;:0.92156863212585449,&#34;a&#34;:1.0},&#34;position&#34;:0.17567500472068787},{&#34;color&#34;:{&#34;r&#34;:0.95294117927551270,&#34;g&#34;:0.95686274766921997,&#34;b&#34;:0.96470588445663452,&#34;a&#34;:0.0},&#34;position&#34;:1.0}],&#34;transform&#34;:{&#34;m00&#34;:-17.320508956909180,&#34;m01&#34;:-10.0,&#34;m02&#34;:29.660339355468750,&#34;m10&#34;:10.0,&#34;m11&#34;:-17.320508956909180,&#34;m12&#34;:19.660108566284180},&#34;opacity&#34;:1.0,&#34;blendMode&#34;:&#34;NORMAL&#34;,&#34;stopsVar&#34;:[{&#34;color&#34;:{&#34;r&#34;:0.14509804546833038,&#34;g&#34;:0.38823530077934265,&#34;b&#34;:0.92156863212585449,&#34;a&#34;:1.0},&#34;position&#34;:0.0},{&#34;color&#34;:{&#34;r&#34;:0.14509804546833038,&#34;g&#34;:0.38823530077934265,&#34;b&#34;:0.92156863212585449,&#34;a&#34;:1.0},&#34;position&#34;:0.17567500472068787},{&#34;color&#34;:{&#34;r&#34;:0.95294117927551270,&#34;g&#34;:0.95686274766921997,&#34;b&#34;:0.96470588445663452,&#34;a&#34;:0.0},&#34;position&#34;:1.0}],&#34;visible&#34;:true}"/>
<circle cx="9.75489" cy="20.1829" r="2.5" transform="rotate(60 9.75489 20.1829)" fill="#2563EB"/>
<defs>
<clipPath id="paint0_angular_2038_2979_clip_path"><path d="M21.0001 24.6601C16.2172 27.4215 10.1013 25.7828 7.33983 20.9999C4.57841 16.2169 6.21716 10.101 11.0001 7.3396C15.783 4.57818 21.8989 6.21693 24.6603 10.9999C27.4218 15.7828 25.783 21.8987 21.0001 24.6601ZM13.5001 11.6697C11.1086 13.0504 10.2892 16.1084 11.67 18.4999C13.0507 20.8913 16.1086 21.7107 18.5001 20.33C20.8915 18.9493 21.7109 15.8913 20.3302 13.4999C18.9495 11.1084 15.8915 10.289 13.5001 11.6697Z"/></clipPath></defs>
</svg>
