<svg width="32" height="32" viewBox="0 0 32 32" fill="none" xmlns="http://www.w3.org/2000/svg">
<g clip-path="url(#paint0_angular_2038_2789_clip_path)" data-figma-skip-parse="true"><g transform="matrix(0.00951057 0.00309017 -0.00309017 0.00951057 16.0001 15.9998)"><foreignObject x="-1020" y="-1020" width="2040" height="2040"><div xmlns="http://www.w3.org/1999/xhtml" style="background:conic-gradient(from 90deg,rgba(37, 99, 235, 1) 0deg,rgba(37, 99, 235, 1) 63.243deg,rgba(243, 244, 246, 0) 360deg);height:100%;width:100%;opacity:1"></div></foreignObject></g></g><path d="M19.0902 6.48921C24.3428 8.19586 27.2173 13.8374 25.5106 19.0899C23.804 24.3425 18.1624 27.217 12.9099 25.5103C7.65735 23.8037 4.78284 18.1621 6.48949 12.9096C8.19615 7.65706 13.8377 4.78255 19.0902 6.48921ZM14.455 20.7551C17.0812 21.6084 19.902 20.1711 20.7553 17.5449C21.6087 14.9186 20.1714 12.0978 17.5451 11.2445C14.9189 10.3912 12.0981 11.8284 11.2448 14.4547C10.3914 17.081 11.8287 19.9017 14.455 20.7551Z" data-figma-gradient-fill="{&#34;type&#34;:&#34;GRADIENT_ANGULAR&#34;,&#34;stops&#34;:[{&#34;color&#34;:{&#34;r&#34;:0.14509804546833038,&#34;g&#34;:0.38823530077934265,&#34;b&#34;:0.92156863212585449,&#34;a&#34;:1.0},&#34;position&#34;:0.0},{&#34;color&#34;:{&#34;r&#34;:0.14509804546833038,&#34;g&#34;:0.38823530077934265,&#34;b&#34;:0.92156863212585449,&#34;a&#34;:1.0},&#34;position&#34;:0.17567500472068787},{&#34;color&#34;:{&#34;r&#34;:0.95294117927551270,&#34;g&#34;:0.95686274766921997,&#34;b&#34;:0.96470588445663452,&#34;a&#34;:0.0},&#34;position&#34;:1.0}],&#34;transform&#34;:{&#34;m00&#34;:19.021131515502930,&#34;m01&#34;:-6.1803398132324219,&#34;m02&#34;:9.5796623229980469,&#34;m10&#34;:6.1803398132324219,&#34;m11&#34;:19.021131515502930,&#34;m12&#34;:3.3990352153778076},&#34;opacity&#34;:1.0,&#34;blendMode&#34;:&#34;NORMAL&#34;,&#34;stopsVar&#34;:[{&#34;color&#34;:{&#34;r&#34;:0.14509804546833038,&#34;g&#34;:0.38823530077934265,&#34;b&#34;:0.92156863212585449,&#34;a&#34;:1.0},&#34;position&#34;:0.0},{&#34;color&#34;:{&#34;r&#34;:0.14509804546833038,&#34;g&#34;:0.38823530077934265,&#34;b&#34;:0.92156863212585449,&#34;a&#34;:1.0},&#34;position&#34;:0.17567500472068787},{&#34;color&#34;:{&#34;r&#34;:0.95294117927551270,&#34;g&#34;:0.95686274766921997,&#34;b&#34;:0.96470588445663452,&#34;a&#34;:0.0},&#34;position&#34;:1.0}],&#34;visible&#34;:true}"/>
<circle cx="23.2875" cy="17.8419" r="2.5" transform="rotate(-72 23.2875 17.8419)" fill="#2563EB"/>
<defs>
<clipPath id="paint0_angular_2038_2789_clip_path"><path d="M19.0902 6.48921C24.3428 8.19586 27.2173 13.8374 25.5106 19.0899C23.804 24.3425 18.1624 27.217 12.9099 25.5103C7.65735 23.8037 4.78284 18.1621 6.48949 12.9096C8.19615 7.65706 13.8377 4.78255 19.0902 6.48921ZM14.455 20.7551C17.0812 21.6084 19.902 20.1711 20.7553 17.5449C21.6087 14.9186 20.1714 12.0978 17.5451 11.2445C14.9189 10.3912 12.0981 11.8284 11.2448 14.4547C10.3914 17.081 11.8287 19.9017 14.455 20.7551Z"/></clipPath></defs>
</svg>
