<svg width="32" height="32" viewBox="0 0 32 32" fill="none" xmlns="http://www.w3.org/2000/svg">
<g filter="url(#filter0_dd_2006_2457)">
<path d="M17.6114 8.65066C17.6114 7.73902 16.8723 7 15.9607 7C15.0491 7 14.31 7.73902 14.31 8.65066V14.31H8.65066C7.73902 14.31 7 15.0491 7 15.9607C7 16.8723 7.73902 17.6114 8.65066 17.6114H14.31V23.3493C14.31 24.261 15.0491 25 15.9607 25C16.8723 25 17.6114 24.261 17.6114 23.3493V17.6114H23.3493C24.261 17.6114 25 16.8723 25 15.9607C25 15.0491 24.261 14.31 23.3493 14.31H17.6114V8.65066Z" fill="#F3F4F6"/>
<path d="M15.9609 6.40039C17.2037 6.40052 18.2108 7.40759 18.2109 8.65039V13.71H23.3496C24.5925 13.7101 25.5996 14.718 25.5996 15.9609C25.5995 17.2037 24.5924 18.2108 23.3496 18.2109H18.2109V23.3496C18.2108 24.5924 17.2037 25.5995 15.9609 25.5996C14.718 25.5996 13.7101 24.5925 13.71 23.3496V18.2109H8.65039C7.40759 18.2108 6.40052 17.2037 6.40039 15.9609C6.40039 14.718 7.40751 13.7101 8.65039 13.71H13.71V8.65039C13.7101 7.40751 14.718 6.40039 15.9609 6.40039Z" stroke="#030712" stroke-width="1.2" stroke-linecap="round"/>
</g>
<defs>
<filter id="filter0_dd_2006_2457" x="2.80005" y="4.80005" width="26.3999" height="26.3999" filterUnits="userSpaceOnUse" color-interpolation-filters="sRGB">
<feFlood flood-opacity="0" result="BackgroundImageFix"/>
<feColorMatrix in="SourceAlpha" type="matrix" values="0 0 0 0 0 0 0 0 0 0 0 0 0 0 0 0 0 0 127 0" result="hardAlpha"/>
<feMorphology radius="1" operator="erode" in="SourceAlpha" result="effect1_dropShadow_2006_2457"/>
<feOffset dy="2"/>
<feGaussianBlur stdDeviation="2"/>
<feComposite in2="hardAlpha" operator="out"/>
<feColorMatrix type="matrix" values="0 0 0 0 0 0 0 0 0 0 0 0 0 0 0 0 0 0 0.1 0"/>
<feBlend mode="normal" in2="BackgroundImageFix" result="effect1_dropShadow_2006_2457"/>
<feColorMatrix in="SourceAlpha" type="matrix" values="0 0 0 0 0 0 0 0 0 0 0 0 0 0 0 0 0 0 127 0" result="hardAlpha"/>
<feMorphology radius="2" operator="erode" in="SourceAlpha" result="effect2_dropShadow_2006_2457"/>
<feOffset dy="2"/>
<feGaussianBlur stdDeviation="1"/>
<feColorMatrix type="matrix" values="0 0 0 0 0 0 0 0 0 0 0 0 0 0 0 0 0 0 0.1 0"/>
<feBlend mode="normal" in2="effect1_dropShadow_2006_2457" result="effect2_dropShadow_2006_2457"/>
<feBlend mode="normal" in="SourceGraphic" in2="effect2_dropShadow_2006_2457" result="shape"/>
</filter>
</defs>
</svg>
