<svg width="32" height="32" viewBox="0 0 32 32" fill="none" xmlns="http://www.w3.org/2000/svg">
<path d="M14.2139 10.9355C15.2001 9.9493 16.799 9.95237 17.7842 10.9375L21.1836 14.3369C21.7932 14.9466 21.7932 15.9353 21.1836 16.5449C20.5739 17.1546 19.5852 17.1546 18.9756 16.5449L17.5615 15.1309L17.5615 26.958C17.5615 27.8201 16.8622 28.5183 16.001 28.5195H15.999C15.1373 28.5183 14.4386 27.8198 14.4375 26.958L14.4375 15.1289L13.0225 16.5439C12.4134 17.1528 11.4256 17.1548 10.8154 16.5449C10.2064 15.9359 10.2044 14.9462 10.8145 14.3359L14.2139 10.9355ZM22 4.40039C22.8837 4.40039 23.5996 5.11634 23.5996 6C23.5996 6.88366 22.8837 7.59961 22 7.59961L10 7.59961C9.11634 7.59961 8.40039 6.88366 8.40039 6C8.40039 5.11634 9.11634 4.40039 10 4.40039L22 4.40039Z" fill="#F3F4F6" stroke="#030712" stroke-width="1.2"/>
</svg>
