<svg width="32" height="32" viewBox="0 0 32 32" fill="none" xmlns="http://www.w3.org/2000/svg">
<g clip-path="url(#clip0_1_5595)">
<g filter="url(#filter0_dd_1_5595)">
<path d="M4 12.0633C4 9.58457 5.19356 9.44427 7.06446 11.0812L17.5514 19.9672C18.3426 20.6439 18.4868 22.4459 17.5514 22.8201C16.6159 23.1942 13.5476 22.5757 11.1509 23.6092C8.75417 24.6428 7.26549 27.2629 6.29602 27.681C5.32654 28.0991 4.01541 26.5222 4 25.5109L4 12.0633Z" fill="#F3F4F6"/>
<path d="M4.67773 9.44824C5.13918 9.32665 5.61869 9.44653 6.05371 9.65332C6.49499 9.86315 6.96494 10.1975 7.45215 10.623L17.9395 19.5098L17.9414 19.5107C18.5023 19.9904 18.7772 20.7933 18.7988 21.4883C18.8196 22.1576 18.5987 23.0471 17.7744 23.377C17.4251 23.5167 16.9506 23.5452 16.5078 23.5557C16.2713 23.5612 16.013 23.5613 15.7471 23.5615C15.479 23.5617 15.1998 23.5622 14.9102 23.5674C13.7399 23.5885 12.4733 23.6925 11.3887 24.1602C10.3085 24.626 9.4072 25.4629 8.62402 26.2891C8.25647 26.6768 7.86501 27.1171 7.55566 27.4336C7.24773 27.7486 6.89777 28.0752 6.5332 28.2324C6.10563 28.4166 5.67012 28.3641 5.30566 28.2168C4.94635 28.0716 4.62368 27.8234 4.3584 27.5479C3.84658 27.0162 3.41142 26.2318 3.40039 25.5205V12.0635C3.40039 11.4072 3.47691 10.8425 3.66211 10.4014C3.85407 9.94422 4.18412 9.57836 4.67773 9.44824Z" stroke="#030712" stroke-width="1.2"/>
</g>
<g filter="url(#filter1_dd_1_5595)">
<g clip-path="url(#paint0_angular_1_5595_clip_path)" data-figma-skip-parse="true"><g transform="matrix(-0.00145538 -0.00684703 0.00684703 -0.00145538 20 8.99995)"><foreignObject x="-1020" y="-1020" width="2040" height="2040"><div xmlns="http://www.w3.org/1999/xhtml" style="background:conic-gradient(from 90deg,rgba(37, 99, 235, 1) 0deg,rgba(37, 99, 235, 1) 63.243deg,rgba(243, 244, 246, 0) 360deg);height:100%;width:100%;opacity:1"></div></foreignObject></g></g><path d="M13.1529 10.4553C12.3491 6.67382 14.7631 2.9567 18.5446 2.15292C22.3261 1.34913 26.0432 3.76306 26.847 7.54457C27.6508 11.3261 25.2368 15.0432 21.4553 15.847C17.6738 16.6508 13.9567 14.2368 13.1529 10.4553ZM23.4235 8.27226C23.0216 6.3815 21.163 5.17454 19.2723 5.57643C17.3815 5.97833 16.1745 7.83688 16.5764 9.72764C16.9783 11.6184 18.8369 12.8254 20.7276 12.4235C22.6184 12.0216 23.8254 10.163 23.4235 8.27226Z" data-figma-gradient-fill="{&#34;type&#34;:&#34;GRADIENT_ANGULAR&#34;,&#34;stops&#34;:[{&#34;color&#34;:{&#34;r&#34;:0.14509804546833038,&#34;g&#34;:0.38823530077934265,&#34;b&#34;:0.92156863212585449,&#34;a&#34;:1.0},&#34;position&#34;:0.0},{&#34;color&#34;:{&#34;r&#34;:0.14509804546833038,&#34;g&#34;:0.38823530077934265,&#34;b&#34;:0.92156863212585449,&#34;a&#34;:1.0},&#34;position&#34;:0.17567500472068787},{&#34;color&#34;:{&#34;r&#34;:0.95294117927551270,&#34;g&#34;:0.95686274766921997,&#34;b&#34;:0.96470588445663452,&#34;a&#34;:0.0},&#34;position&#34;:1.0}],&#34;transform&#34;:{&#34;m00&#34;:-2.9107635021209717,&#34;m01&#34;:13.694067001342773,&#34;m02&#34;:14.608301162719727,&#34;m10&#34;:-13.694067001342773,&#34;m11&#34;:-2.9107635021209717,&#34;m12&#34;:17.302364349365234},&#34;opacity&#34;:1.0,&#34;blendMode&#34;:&#34;NORMAL&#34;,&#34;stopsVar&#34;:[{&#34;color&#34;:{&#34;r&#34;:0.14509804546833038,&#34;g&#34;:0.38823530077934265,&#34;b&#34;:0.92156863212585449,&#34;a&#34;:1.0},&#34;position&#34;:0.0},{&#34;color&#34;:{&#34;r&#34;:0.14509804546833038,&#34;g&#34;:0.38823530077934265,&#34;b&#34;:0.92156863212585449,&#34;a&#34;:1.0},&#34;position&#34;:0.17567500472068787},{&#34;color&#34;:{&#34;r&#34;:0.95294117927551270,&#34;g&#34;:0.95686274766921997,&#34;b&#34;:0.96470588445663452,&#34;a&#34;:0.0},&#34;position&#34;:1.0}],&#34;visible&#34;:true}"/>
<circle cx="18.566" cy="3.93749" r="1.75" transform="rotate(168 18.566 3.93749)" fill="#2563EB"/>
</g>
</g>
<defs>
<filter id="filter0_dd_1_5595" x="-0.199951" y="7.79968" width="22.5997" height="26.1504" filterUnits="userSpaceOnUse" color-interpolation-filters="sRGB">
<feFlood flood-opacity="0" result="BackgroundImageFix"/>
<feColorMatrix in="SourceAlpha" type="matrix" values="0 0 0 0 0 0 0 0 0 0 0 0 0 0 0 0 0 0 127 0" result="hardAlpha"/>
<feMorphology radius="1" operator="erode" in="SourceAlpha" result="effect1_dropShadow_1_5595"/>
<feOffset dy="2"/>
<feGaussianBlur stdDeviation="2"/>
<feComposite in2="hardAlpha" operator="out"/>
<feColorMatrix type="matrix" values="0 0 0 0 0 0 0 0 0 0 0 0 0 0 0 0 0 0 0.1 0"/>
<feBlend mode="normal" in2="BackgroundImageFix" result="effect1_dropShadow_1_5595"/>
<feColorMatrix in="SourceAlpha" type="matrix" values="0 0 0 0 0 0 0 0 0 0 0 0 0 0 0 0 0 0 127 0" result="hardAlpha"/>
<feMorphology radius="2" operator="erode" in="SourceAlpha" result="effect2_dropShadow_1_5595"/>
<feOffset dy="2"/>
<feGaussianBlur stdDeviation="1"/>
<feColorMatrix type="matrix" values="0 0 0 0 0 0 0 0 0 0 0 0 0 0 0 0 0 0 0.1 0"/>
<feBlend mode="normal" in2="effect1_dropShadow_1_5595" result="effect2_dropShadow_1_5595"/>
<feBlend mode="normal" in="SourceGraphic" in2="effect2_dropShadow_1_5595" result="shape"/>
</filter>
<filter id="filter1_dd_1_5595" x="8.69751" y="-0.30249" width="22.6049" height="22.6049" filterUnits="userSpaceOnUse" color-interpolation-filters="sRGB">
<feFlood flood-opacity="0" result="BackgroundImageFix"/>
<feColorMatrix in="SourceAlpha" type="matrix" values="0 0 0 0 0 0 0 0 0 0 0 0 0 0 0 0 0 0 127 0" result="hardAlpha"/>
<feMorphology radius="1" operator="erode" in="SourceAlpha" result="effect1_dropShadow_1_5595"/>
<feOffset dy="2"/>
<feGaussianBlur stdDeviation="2"/>
<feComposite in2="hardAlpha" operator="out"/>
<feColorMatrix type="matrix" values="0 0 0 0 0 0 0 0 0 0 0 0 0 0 0 0 0 0 0.1 0"/>
<feBlend mode="normal" in2="BackgroundImageFix" result="effect1_dropShadow_1_5595"/>
<feColorMatrix in="SourceAlpha" type="matrix" values="0 0 0 0 0 0 0 0 0 0 0 0 0 0 0 0 0 0 127 0" result="hardAlpha"/>
<feMorphology radius="2" operator="erode" in="SourceAlpha" result="effect2_dropShadow_1_5595"/>
<feOffset dy="2"/>
<feGaussianBlur stdDeviation="1"/>
<feColorMatrix type="matrix" values="0 0 0 0 0 0 0 0 0 0 0 0 0 0 0 0 0 0 0.1 0"/>
<feBlend mode="normal" in2="effect1_dropShadow_1_5595" result="effect2_dropShadow_1_5595"/>
<feBlend mode="normal" in="SourceGraphic" in2="effect2_dropShadow_1_5595" result="shape"/>
</filter>
<clipPath id="paint0_angular_1_5595_clip_path"><path d="M13.1529 10.4553C12.3491 6.67382 14.7631 2.9567 18.5446 2.15292C22.3261 1.34913 26.0432 3.76306 26.847 7.54457C27.6508 11.3261 25.2368 15.0432 21.4553 15.847C17.6738 16.6508 13.9567 14.2368 13.1529 10.4553ZM23.4235 8.27226C23.0216 6.3815 21.163 5.17454 19.2723 5.57643C17.3815 5.97833 16.1745 7.83688 16.5764 9.72764C16.9783 11.6184 18.8369 12.8254 20.7276 12.4235C22.6184 12.0216 23.8254 10.163 23.4235 8.27226Z"/></clipPath><clipPath id="clip0_1_5595">
<rect width="32" height="32" fill="white"/>
</clipPath>
</defs>
</svg>
