<svg width="32" height="32" viewBox="0 0 32 32" fill="none" xmlns="http://www.w3.org/2000/svg">
<path d="M4.67773 9.44824C5.13918 9.32665 5.61869 9.44653 6.05371 9.65332C6.49499 9.86315 6.96494 10.1975 7.45215 10.623L17.9395 19.5098L17.9414 19.5107C18.5023 19.9904 18.7772 20.7933 18.7988 21.4883C18.8196 22.1576 18.5987 23.0471 17.7744 23.377C17.4251 23.5167 16.9506 23.5452 16.5078 23.5557C16.2713 23.5612 16.013 23.5613 15.7471 23.5615C15.479 23.5617 15.1998 23.5622 14.9102 23.5674C13.7399 23.5885 12.4733 23.6925 11.3887 24.1602C10.3085 24.626 9.4072 25.4629 8.62402 26.2891C8.25647 26.6768 7.86501 27.1171 7.55566 27.4336C7.24773 27.7486 6.89777 28.0752 6.5332 28.2324C6.10563 28.4166 5.67012 28.3641 5.30566 28.2168C4.94635 28.0716 4.62368 27.8234 4.3584 27.5479C3.84658 27.0162 3.41142 26.2318 3.40039 25.5205V12.0635C3.40039 11.4072 3.47691 10.8425 3.66211 10.4014C3.85407 9.94422 4.18412 9.57836 4.67773 9.44824Z" fill="#F3F4F6" stroke="#030712" stroke-width="1.2"/>
<g clip-path="url(#paint0_angular_2038_5152_clip_path)" data-figma-skip-parse="true"><g transform="matrix(0.00638873 -0.00284445 0.00284445 0.00638873 21.9966 10.009)"><foreignObject x="-1020" y="-1020" width="2040" height="2040"><div xmlns="http://www.w3.org/1999/xhtml" style="background:conic-gradient(from 90deg,rgba(37, 99, 235, 1) 0deg,rgba(37, 99, 235, 1) 63.243deg,rgba(243, 244, 246, 0) 360deg);height:100%;width:100%;opacity:1"></div></foreignObject></g></g><path d="M19.1521 3.62027C22.6805 2.04933 26.8143 3.63616 28.3853 7.16456C29.9562 10.693 28.3694 14.8268 24.841 16.3977C21.3126 17.9687 17.1788 16.3819 15.6078 12.8535C14.0369 9.32505 15.6237 5.19122 19.1521 3.62027ZM23.4188 13.2034C25.183 12.4179 25.9764 10.351 25.1909 8.58678C24.4055 6.82258 22.3385 6.02917 20.5743 6.81464C18.8101 7.60011 18.0167 9.66703 18.8022 11.4312C19.5877 13.1954 21.6546 13.9888 23.4188 13.2034Z" data-figma-gradient-fill="{&#34;type&#34;:&#34;GRADIENT_ANGULAR&#34;,&#34;stops&#34;:[{&#34;color&#34;:{&#34;r&#34;:0.14509804546833038,&#34;g&#34;:0.38823530077934265,&#34;b&#34;:0.92156863212585449,&#34;a&#34;:1.0},&#34;position&#34;:0.0},{&#34;color&#34;:{&#34;r&#34;:0.14509804546833038,&#34;g&#34;:0.38823530077934265,&#34;b&#34;:0.92156863212585449,&#34;a&#34;:1.0},&#34;position&#34;:0.17567500472068787},{&#34;color&#34;:{&#34;r&#34;:0.95294117927551270,&#34;g&#34;:0.95686274766921997,&#34;b&#34;:0.96470588445663452,&#34;a&#34;:0.0},&#34;position&#34;:1.0}],&#34;transform&#34;:{&#34;m00&#34;:12.777467727661133,&#34;m01&#34;:5.6888947486877441,&#34;m02&#34;:12.763375282287598,&#34;m10&#34;:-5.6888947486877441,&#34;m11&#34;:12.777467727661133,&#34;m12&#34;:6.4647197723388672},&#34;opacity&#34;:1.0,&#34;blendMode&#34;:&#34;NORMAL&#34;,&#34;stopsVar&#34;:[{&#34;color&#34;:{&#34;r&#34;:0.14509804546833038,&#34;g&#34;:0.38823530077934265,&#34;b&#34;:0.92156863212585449,&#34;a&#34;:1.0},&#34;position&#34;:0.0},{&#34;color&#34;:{&#34;r&#34;:0.14509804546833038,&#34;g&#34;:0.38823530077934265,&#34;b&#34;:0.92156863212585449,&#34;a&#34;:1.0},&#34;position&#34;:0.17567500472068787},{&#34;color&#34;:{&#34;r&#34;:0.95294117927551270,&#34;g&#34;:0.95686274766921997,&#34;b&#34;:0.96470588445663452,&#34;a&#34;:0.0},&#34;position&#34;:1.0}],&#34;visible&#34;:true}"/>
<circle cx="26.6461" cy="7.55621" r="1.74833" transform="rotate(-114 26.6461 7.55621)" fill="#2563EB"/>
<defs>
<clipPath id="paint0_angular_2038_5152_clip_path"><path d="M19.1521 3.62027C22.6805 2.04933 26.8143 3.63616 28.3853 7.16456C29.9562 10.693 28.3694 14.8268 24.841 16.3977C21.3126 17.9687 17.1788 16.3819 15.6078 12.8535C14.0369 9.32505 15.6237 5.19122 19.1521 3.62027ZM23.4188 13.2034C25.183 12.4179 25.9764 10.351 25.1909 8.58678C24.4055 6.82258 22.3385 6.02917 20.5743 6.81464C18.8101 7.60011 18.0167 9.66703 18.8022 11.4312C19.5877 13.1954 21.6546 13.9888 23.4188 13.2034Z"/></clipPath></defs>
</svg>
